<mxfile host="Electron" agent="Mozilla/5.0 (Windows NT 10.0; Win64; x64) AppleWebKit/537.36 (KHTML, like Gecko) draw.io/26.0.4 Chrome/128.0.6613.186 Electron/32.2.5 Safari/537.36" version="26.0.4">
  <diagram id="C5RBs43oDa-KdzZeNtuy" name="Page-1">
    <mxGraphModel dx="2037" dy="825" grid="1" gridSize="10" guides="1" tooltips="1" connect="1" arrows="1" fold="1" page="1" pageScale="1" pageWidth="827" pageHeight="1169" math="0" shadow="0">
      <root>
        <mxCell id="WIyWlLk6GJQsqaUBKTNV-0" />
        <mxCell id="WIyWlLk6GJQsqaUBKTNV-1" parent="WIyWlLk6GJQsqaUBKTNV-0" />
        <mxCell id="PzBcTISUMEJhEaxG71Po-60" value="" style="edgeStyle=orthogonalEdgeStyle;rounded=0;orthogonalLoop=1;jettySize=auto;html=1;" parent="WIyWlLk6GJQsqaUBKTNV-1" source="PzBcTISUMEJhEaxG71Po-9" target="PzBcTISUMEJhEaxG71Po-12" edge="1">
          <mxGeometry relative="1" as="geometry" />
        </mxCell>
        <mxCell id="PzBcTISUMEJhEaxG71Po-9" value="Load up interactable HTML. This should include:&lt;div&gt;&lt;ul style=&quot;margin-top: 12px; padding-left: 20px;&quot;&gt;&lt;li style=&quot;text-align: left;&quot;&gt;Filters&lt;/li&gt;&lt;li style=&quot;text-align: left;&quot;&gt;Search bar&lt;/li&gt;&lt;li style=&quot;text-align: left;&quot;&gt;Random&amp;nbsp; selection button&amp;nbsp;&lt;/li&gt;&lt;li style=&quot;text-align: left;&quot;&gt;Input text box for new recipes&lt;/li&gt;&lt;li style=&quot;text-align: left;&quot;&gt;&lt;span style=&quot;background-color: transparent; color: light-dark(rgb(0, 0, 0), rgb(255, 255, 255));&quot;&gt;Link to Favourites lists&lt;/span&gt;&lt;/li&gt;&lt;/ul&gt;&lt;/div&gt;" style="rounded=0;whiteSpace=wrap;html=1;" parent="WIyWlLk6GJQsqaUBKTNV-1" vertex="1">
          <mxGeometry x="80" y="130" width="160" height="203" as="geometry" />
        </mxCell>
        <mxCell id="PzBcTISUMEJhEaxG71Po-59" value="" style="edgeStyle=orthogonalEdgeStyle;rounded=0;orthogonalLoop=1;jettySize=auto;html=1;" parent="WIyWlLk6GJQsqaUBKTNV-1" source="PzBcTISUMEJhEaxG71Po-10" target="PzBcTISUMEJhEaxG71Po-9" edge="1">
          <mxGeometry relative="1" as="geometry" />
        </mxCell>
        <mxCell id="PzBcTISUMEJhEaxG71Po-10" value="User goes to localhost:3000" style="rounded=1;whiteSpace=wrap;html=1;fillColor=#008a00;fontColor=#ffffff;strokeColor=#005700;fontStyle=1" parent="WIyWlLk6GJQsqaUBKTNV-1" vertex="1">
          <mxGeometry x="80" y="36" width="160" height="40" as="geometry" />
        </mxCell>
        <mxCell id="PzBcTISUMEJhEaxG71Po-61" style="edgeStyle=orthogonalEdgeStyle;rounded=0;orthogonalLoop=1;jettySize=auto;html=1;entryX=0;entryY=0.5;entryDx=0;entryDy=0;" parent="WIyWlLk6GJQsqaUBKTNV-1" source="PzBcTISUMEJhEaxG71Po-12" target="PzBcTISUMEJhEaxG71Po-35" edge="1">
          <mxGeometry relative="1" as="geometry">
            <Array as="points">
              <mxPoint x="340" y="474" />
              <mxPoint x="340" y="430" />
            </Array>
          </mxGeometry>
        </mxCell>
        <mxCell id="PzBcTISUMEJhEaxG71Po-63" style="edgeStyle=orthogonalEdgeStyle;rounded=0;orthogonalLoop=1;jettySize=auto;html=1;entryX=0;entryY=0.5;entryDx=0;entryDy=0;" parent="WIyWlLk6GJQsqaUBKTNV-1" source="PzBcTISUMEJhEaxG71Po-12" target="PzBcTISUMEJhEaxG71Po-52" edge="1">
          <mxGeometry relative="1" as="geometry">
            <Array as="points">
              <mxPoint x="287" y="425" />
              <mxPoint x="287" y="213" />
            </Array>
          </mxGeometry>
        </mxCell>
        <mxCell id="PzBcTISUMEJhEaxG71Po-125" style="edgeStyle=orthogonalEdgeStyle;rounded=0;orthogonalLoop=1;jettySize=auto;html=1;entryX=0;entryY=0.5;entryDx=0;entryDy=0;" parent="WIyWlLk6GJQsqaUBKTNV-1" source="PzBcTISUMEJhEaxG71Po-12" target="PzBcTISUMEJhEaxG71Po-14" edge="1">
          <mxGeometry relative="1" as="geometry">
            <Array as="points">
              <mxPoint x="310" y="446" />
              <mxPoint x="310" y="323" />
            </Array>
          </mxGeometry>
        </mxCell>
        <mxCell id="LiJjE0nPk_Wty677orZp-14" style="edgeStyle=orthogonalEdgeStyle;rounded=0;orthogonalLoop=1;jettySize=auto;html=1;entryX=0;entryY=0.5;entryDx=0;entryDy=0;" edge="1" parent="WIyWlLk6GJQsqaUBKTNV-1" source="PzBcTISUMEJhEaxG71Po-12" target="LiJjE0nPk_Wty677orZp-6">
          <mxGeometry relative="1" as="geometry">
            <Array as="points">
              <mxPoint x="275" y="404" />
              <mxPoint x="275" y="140" />
            </Array>
          </mxGeometry>
        </mxCell>
        <mxCell id="LiJjE0nPk_Wty677orZp-43" style="edgeStyle=orthogonalEdgeStyle;rounded=0;orthogonalLoop=1;jettySize=auto;html=1;entryX=0;entryY=0.5;entryDx=0;entryDy=0;" edge="1" parent="WIyWlLk6GJQsqaUBKTNV-1" source="PzBcTISUMEJhEaxG71Po-12" target="LiJjE0nPk_Wty677orZp-42">
          <mxGeometry relative="1" as="geometry">
            <Array as="points">
              <mxPoint x="260" y="380" />
              <mxPoint x="260" y="67" />
            </Array>
          </mxGeometry>
        </mxCell>
        <mxCell id="PzBcTISUMEJhEaxG71Po-12" value="&lt;div&gt;&lt;span style=&quot;background-color: transparent; color: light-dark(rgb(0, 0, 0), rgb(255, 255, 255));&quot;&gt;&lt;br&gt;What operation does the user&amp;nbsp;&lt;/span&gt;&lt;br&gt;&lt;/div&gt;&lt;div&gt;select&lt;/div&gt;" style="rhombus;whiteSpace=wrap;html=1;" parent="WIyWlLk6GJQsqaUBKTNV-1" vertex="1">
          <mxGeometry x="105" y="370" width="110" height="110" as="geometry" />
        </mxCell>
        <mxCell id="PzBcTISUMEJhEaxG71Po-65" style="edgeStyle=orthogonalEdgeStyle;rounded=0;orthogonalLoop=1;jettySize=auto;html=1;entryX=0;entryY=0.5;entryDx=0;entryDy=0;" parent="WIyWlLk6GJQsqaUBKTNV-1" target="PzBcTISUMEJhEaxG71Po-15" edge="1">
          <mxGeometry relative="1" as="geometry">
            <Array as="points">
              <mxPoint x="380" y="285" />
            </Array>
            <mxPoint x="380.05882352941217" y="300.05882352941217" as="sourcePoint" />
          </mxGeometry>
        </mxCell>
        <mxCell id="PzBcTISUMEJhEaxG71Po-68" style="edgeStyle=orthogonalEdgeStyle;rounded=0;orthogonalLoop=1;jettySize=auto;html=1;entryX=0;entryY=0.5;entryDx=0;entryDy=0;" parent="WIyWlLk6GJQsqaUBKTNV-1" target="PzBcTISUMEJhEaxG71Po-18" edge="1">
          <mxGeometry relative="1" as="geometry">
            <Array as="points">
              <mxPoint x="380" y="358" />
            </Array>
            <mxPoint x="380.05882352941217" y="342.94117647058806" as="sourcePoint" />
          </mxGeometry>
        </mxCell>
        <mxCell id="PzBcTISUMEJhEaxG71Po-14" value="Is the search filtered?" style="rhombus;whiteSpace=wrap;html=1;" parent="WIyWlLk6GJQsqaUBKTNV-1" vertex="1">
          <mxGeometry x="330" y="273" width="100" height="100" as="geometry" />
        </mxCell>
        <mxCell id="PzBcTISUMEJhEaxG71Po-70" style="edgeStyle=orthogonalEdgeStyle;rounded=0;orthogonalLoop=1;jettySize=auto;html=1;entryX=0;entryY=0.5;entryDx=0;entryDy=0;" parent="WIyWlLk6GJQsqaUBKTNV-1" source="PzBcTISUMEJhEaxG71Po-15" target="PzBcTISUMEJhEaxG71Po-16" edge="1">
          <mxGeometry relative="1" as="geometry" />
        </mxCell>
        <mxCell id="PzBcTISUMEJhEaxG71Po-15" value="Trigger a GET API with adapted URL to contain specified parameters" style="rounded=0;whiteSpace=wrap;html=1;fillColor=#1ba1e2;fontColor=#ffffff;strokeColor=#006EAF;" parent="WIyWlLk6GJQsqaUBKTNV-1" vertex="1">
          <mxGeometry x="477" y="255" width="120" height="60" as="geometry" />
        </mxCell>
        <mxCell id="PzBcTISUMEJhEaxG71Po-71" style="edgeStyle=orthogonalEdgeStyle;rounded=0;orthogonalLoop=1;jettySize=auto;html=1;entryX=0;entryY=0.5;entryDx=0;entryDy=0;" parent="WIyWlLk6GJQsqaUBKTNV-1" source="PzBcTISUMEJhEaxG71Po-16" target="PzBcTISUMEJhEaxG71Po-17" edge="1">
          <mxGeometry relative="1" as="geometry" />
        </mxCell>
        <mxCell id="PzBcTISUMEJhEaxG71Po-16" value="Have API respond with JSON payload containing filtered recipes" style="rounded=0;whiteSpace=wrap;html=1;" parent="WIyWlLk6GJQsqaUBKTNV-1" vertex="1">
          <mxGeometry x="623" y="255" width="120" height="60" as="geometry" />
        </mxCell>
        <mxCell id="PzBcTISUMEJhEaxG71Po-17" value="Display curated list" style="rounded=0;whiteSpace=wrap;html=1;" parent="WIyWlLk6GJQsqaUBKTNV-1" vertex="1">
          <mxGeometry x="770" y="255" width="120" height="60" as="geometry" />
        </mxCell>
        <mxCell id="PzBcTISUMEJhEaxG71Po-69" style="edgeStyle=orthogonalEdgeStyle;rounded=0;orthogonalLoop=1;jettySize=auto;html=1;entryX=0;entryY=0.5;entryDx=0;entryDy=0;" parent="WIyWlLk6GJQsqaUBKTNV-1" source="PzBcTISUMEJhEaxG71Po-18" target="PzBcTISUMEJhEaxG71Po-20" edge="1">
          <mxGeometry relative="1" as="geometry" />
        </mxCell>
        <mxCell id="PzBcTISUMEJhEaxG71Po-18" value="Trigger a GET API&lt;div&gt;to return full data set&lt;/div&gt;" style="rounded=0;whiteSpace=wrap;html=1;fillColor=#1ba1e2;fontColor=#ffffff;strokeColor=#006EAF;" parent="WIyWlLk6GJQsqaUBKTNV-1" vertex="1">
          <mxGeometry x="477" y="328" width="120" height="60" as="geometry" />
        </mxCell>
        <mxCell id="PzBcTISUMEJhEaxG71Po-20" value="Display list" style="rounded=0;whiteSpace=wrap;html=1;" parent="WIyWlLk6GJQsqaUBKTNV-1" vertex="1">
          <mxGeometry x="770" y="328" width="120" height="60" as="geometry" />
        </mxCell>
        <mxCell id="PzBcTISUMEJhEaxG71Po-97" style="edgeStyle=orthogonalEdgeStyle;rounded=0;orthogonalLoop=1;jettySize=auto;html=1;entryX=0;entryY=0.5;entryDx=0;entryDy=0;" parent="WIyWlLk6GJQsqaUBKTNV-1" source="PzBcTISUMEJhEaxG71Po-21" target="PzBcTISUMEJhEaxG71Po-12" edge="1">
          <mxGeometry relative="1" as="geometry">
            <Array as="points">
              <mxPoint x="70" y="725" />
              <mxPoint x="70" y="425" />
            </Array>
          </mxGeometry>
        </mxCell>
        <mxCell id="PzBcTISUMEJhEaxG71Po-98" style="edgeStyle=orthogonalEdgeStyle;rounded=0;orthogonalLoop=1;jettySize=auto;html=1;entryX=1;entryY=0.5;entryDx=0;entryDy=0;" parent="WIyWlLk6GJQsqaUBKTNV-1" source="PzBcTISUMEJhEaxG71Po-21" target="PzBcTISUMEJhEaxG71Po-91" edge="1">
          <mxGeometry relative="1" as="geometry" />
        </mxCell>
        <mxCell id="PzBcTISUMEJhEaxG71Po-21" value="Does they&lt;div&gt;pick another operation?&lt;/div&gt;" style="rhombus;whiteSpace=wrap;html=1;" parent="WIyWlLk6GJQsqaUBKTNV-1" vertex="1">
          <mxGeometry x="920" y="640" width="100" height="100" as="geometry" />
        </mxCell>
        <mxCell id="PzBcTISUMEJhEaxG71Po-72" style="edgeStyle=orthogonalEdgeStyle;rounded=0;orthogonalLoop=1;jettySize=auto;html=1;entryX=0;entryY=0.5;entryDx=0;entryDy=0;" parent="WIyWlLk6GJQsqaUBKTNV-1" source="PzBcTISUMEJhEaxG71Po-35" target="PzBcTISUMEJhEaxG71Po-36" edge="1">
          <mxGeometry relative="1" as="geometry" />
        </mxCell>
        <mxCell id="PzBcTISUMEJhEaxG71Po-35" value="Generate a random ID using created function" style="rounded=0;whiteSpace=wrap;html=1;" parent="WIyWlLk6GJQsqaUBKTNV-1" vertex="1">
          <mxGeometry x="477" y="400" width="120" height="60" as="geometry" />
        </mxCell>
        <mxCell id="PzBcTISUMEJhEaxG71Po-73" style="edgeStyle=orthogonalEdgeStyle;rounded=0;orthogonalLoop=1;jettySize=auto;html=1;entryX=0;entryY=0.5;entryDx=0;entryDy=0;" parent="WIyWlLk6GJQsqaUBKTNV-1" source="PzBcTISUMEJhEaxG71Po-36" target="PzBcTISUMEJhEaxG71Po-37" edge="1">
          <mxGeometry relative="1" as="geometry" />
        </mxCell>
        <mxCell id="PzBcTISUMEJhEaxG71Po-36" value="Trigger a GET API with generated ID in URL" style="rounded=0;whiteSpace=wrap;html=1;fillColor=#1ba1e2;fontColor=#ffffff;strokeColor=#006EAF;" parent="WIyWlLk6GJQsqaUBKTNV-1" vertex="1">
          <mxGeometry x="623" y="400" width="120" height="60" as="geometry" />
        </mxCell>
        <mxCell id="LiJjE0nPk_Wty677orZp-0" style="edgeStyle=orthogonalEdgeStyle;rounded=0;orthogonalLoop=1;jettySize=auto;html=1;entryX=0;entryY=1;entryDx=0;entryDy=0;" edge="1" parent="WIyWlLk6GJQsqaUBKTNV-1" source="PzBcTISUMEJhEaxG71Po-37" target="PzBcTISUMEJhEaxG71Po-49">
          <mxGeometry relative="1" as="geometry" />
        </mxCell>
        <mxCell id="PzBcTISUMEJhEaxG71Po-37" value="Have API respond with JSON payload containing selected recipe" style="rounded=0;whiteSpace=wrap;html=1;" parent="WIyWlLk6GJQsqaUBKTNV-1" vertex="1">
          <mxGeometry x="770" y="400" width="120" height="60" as="geometry" />
        </mxCell>
        <mxCell id="PzBcTISUMEJhEaxG71Po-79" style="edgeStyle=orthogonalEdgeStyle;rounded=0;orthogonalLoop=1;jettySize=auto;html=1;entryX=0.5;entryY=0;entryDx=0;entryDy=0;" parent="WIyWlLk6GJQsqaUBKTNV-1" source="PzBcTISUMEJhEaxG71Po-49" target="LiJjE0nPk_Wty677orZp-19" edge="1">
          <mxGeometry relative="1" as="geometry">
            <mxPoint x="970" y="460" as="targetPoint" />
          </mxGeometry>
        </mxCell>
        <mxCell id="PzBcTISUMEJhEaxG71Po-49" value="Does the&amp;nbsp;&lt;div&gt;user customise&amp;nbsp;&lt;br&gt;column&amp;nbsp;set?&lt;/div&gt;" style="rhombus;whiteSpace=wrap;html=1;" parent="WIyWlLk6GJQsqaUBKTNV-1" vertex="1">
          <mxGeometry x="920" y="250" width="100" height="100" as="geometry" />
        </mxCell>
        <mxCell id="PzBcTISUMEJhEaxG71Po-92" value="" style="edgeStyle=orthogonalEdgeStyle;rounded=0;orthogonalLoop=1;jettySize=auto;html=1;" parent="WIyWlLk6GJQsqaUBKTNV-1" source="PzBcTISUMEJhEaxG71Po-52" target="PzBcTISUMEJhEaxG71Po-53" edge="1">
          <mxGeometry relative="1" as="geometry" />
        </mxCell>
        <mxCell id="PzBcTISUMEJhEaxG71Po-52" value="Prompt user to complete new recipe profile.&amp;nbsp;" style="rounded=0;whiteSpace=wrap;html=1;" parent="WIyWlLk6GJQsqaUBKTNV-1" vertex="1">
          <mxGeometry x="330" y="183" width="120" height="60" as="geometry" />
        </mxCell>
        <mxCell id="PzBcTISUMEJhEaxG71Po-93" value="" style="edgeStyle=orthogonalEdgeStyle;rounded=0;orthogonalLoop=1;jettySize=auto;html=1;" parent="WIyWlLk6GJQsqaUBKTNV-1" source="PzBcTISUMEJhEaxG71Po-53" target="PzBcTISUMEJhEaxG71Po-54" edge="1">
          <mxGeometry relative="1" as="geometry" />
        </mxCell>
        <mxCell id="PzBcTISUMEJhEaxG71Po-53" value="Isolate the relevant details and assign them to appropriate keys" style="rounded=0;whiteSpace=wrap;html=1;" parent="WIyWlLk6GJQsqaUBKTNV-1" vertex="1">
          <mxGeometry x="477" y="183" width="120" height="60" as="geometry" />
        </mxCell>
        <mxCell id="PzBcTISUMEJhEaxG71Po-94" value="" style="edgeStyle=orthogonalEdgeStyle;rounded=0;orthogonalLoop=1;jettySize=auto;html=1;" parent="WIyWlLk6GJQsqaUBKTNV-1" source="PzBcTISUMEJhEaxG71Po-54" target="PzBcTISUMEJhEaxG71Po-55" edge="1">
          <mxGeometry relative="1" as="geometry" />
        </mxCell>
        <mxCell id="PzBcTISUMEJhEaxG71Po-54" value="Trigger a POST&amp;nbsp; API to create a new recipe with new information" style="rounded=0;whiteSpace=wrap;html=1;fillColor=#60a917;fontColor=#ffffff;strokeColor=#2D7600;" parent="WIyWlLk6GJQsqaUBKTNV-1" vertex="1">
          <mxGeometry x="623" y="183" width="120" height="60" as="geometry" />
        </mxCell>
        <mxCell id="PzBcTISUMEJhEaxG71Po-95" style="edgeStyle=orthogonalEdgeStyle;rounded=0;orthogonalLoop=1;jettySize=auto;html=1;" parent="WIyWlLk6GJQsqaUBKTNV-1" source="PzBcTISUMEJhEaxG71Po-55" target="PzBcTISUMEJhEaxG71Po-21" edge="1">
          <mxGeometry relative="1" as="geometry">
            <Array as="points">
              <mxPoint x="1060" y="210" />
              <mxPoint x="1060" y="673" />
            </Array>
          </mxGeometry>
        </mxCell>
        <mxCell id="PzBcTISUMEJhEaxG71Po-55" value="Provide response JSON containing the new recipe details" style="rounded=0;whiteSpace=wrap;html=1;" parent="WIyWlLk6GJQsqaUBKTNV-1" vertex="1">
          <mxGeometry x="770" y="183" width="120" height="60" as="geometry" />
        </mxCell>
        <mxCell id="PzBcTISUMEJhEaxG71Po-91" value="End processes" style="rounded=1;whiteSpace=wrap;html=1;fillColor=#a20025;fontColor=#ffffff;strokeColor=#6F0000;fontStyle=1" parent="WIyWlLk6GJQsqaUBKTNV-1" vertex="1">
          <mxGeometry x="80" y="670" width="160" height="40" as="geometry" />
        </mxCell>
        <mxCell id="PzBcTISUMEJhEaxG71Po-99" value="&lt;b&gt;&lt;font style=&quot;font-size: 9px;&quot;&gt;Create new entry&lt;/font&gt;&lt;/b&gt;" style="text;html=1;align=center;verticalAlign=middle;resizable=0;points=[];autosize=1;strokeColor=none;fillColor=none;fontSize=10;" parent="WIyWlLk6GJQsqaUBKTNV-1" vertex="1">
          <mxGeometry x="196" y="401" width="100" height="30" as="geometry" />
        </mxCell>
        <mxCell id="PzBcTISUMEJhEaxG71Po-100" value="&lt;font style=&quot;font-size: 10px;&quot;&gt;&lt;b&gt;Search database&lt;/b&gt;&lt;/font&gt;" style="text;html=1;align=center;verticalAlign=middle;resizable=0;points=[];autosize=1;strokeColor=none;fillColor=none;" parent="WIyWlLk6GJQsqaUBKTNV-1" vertex="1">
          <mxGeometry x="198" y="421" width="100" height="30" as="geometry" />
        </mxCell>
        <mxCell id="PzBcTISUMEJhEaxG71Po-101" value="&lt;font style=&quot;font-size: 10px;&quot;&gt;&lt;b&gt;Random recipe search&lt;/b&gt;&lt;/font&gt;" style="text;html=1;align=center;verticalAlign=middle;resizable=0;points=[];autosize=1;strokeColor=none;fillColor=none;" parent="WIyWlLk6GJQsqaUBKTNV-1" vertex="1">
          <mxGeometry x="167" y="450" width="130" height="30" as="geometry" />
        </mxCell>
        <mxCell id="PzBcTISUMEJhEaxG71Po-102" value="&lt;font style=&quot;font-size: 10px;&quot;&gt;&lt;b&gt;Yes&lt;/b&gt;&lt;/font&gt;" style="text;html=1;align=center;verticalAlign=middle;resizable=0;points=[];autosize=1;strokeColor=none;fillColor=none;" parent="WIyWlLk6GJQsqaUBKTNV-1" vertex="1">
          <mxGeometry x="380" y="263" width="40" height="30" as="geometry" />
        </mxCell>
        <mxCell id="PzBcTISUMEJhEaxG71Po-103" value="&lt;font style=&quot;font-size: 10px;&quot;&gt;&lt;b&gt;No&lt;/b&gt;&lt;/font&gt;" style="text;html=1;align=center;verticalAlign=middle;resizable=0;points=[];autosize=1;strokeColor=none;fillColor=none;" parent="WIyWlLk6GJQsqaUBKTNV-1" vertex="1">
          <mxGeometry x="380" y="349" width="40" height="30" as="geometry" />
        </mxCell>
        <mxCell id="PzBcTISUMEJhEaxG71Po-107" value="&lt;b&gt;No&lt;/b&gt;" style="text;html=1;align=center;verticalAlign=middle;resizable=0;points=[];autosize=1;strokeColor=none;fillColor=none;fontSize=10;" parent="WIyWlLk6GJQsqaUBKTNV-1" vertex="1">
          <mxGeometry x="1006" y="276" width="40" height="30" as="geometry" />
        </mxCell>
        <mxCell id="PzBcTISUMEJhEaxG71Po-121" value="&lt;span style=&quot;color: rgb(255, 255, 255);&quot;&gt;GET API Request&lt;/span&gt;" style="rounded=1;whiteSpace=wrap;html=1;fillColor=#1ba1e2;flipV=1;fontColor=#ffffff;strokeColor=#006EAF;" parent="WIyWlLk6GJQsqaUBKTNV-1" vertex="1">
          <mxGeometry x="1110" y="70" width="120" height="30" as="geometry" />
        </mxCell>
        <mxCell id="PzBcTISUMEJhEaxG71Po-122" value="&lt;span style=&quot;color: rgb(255, 255, 255);&quot;&gt;POST API Request&lt;/span&gt;" style="rounded=1;whiteSpace=wrap;html=1;fillColor=#60a917;flipV=1;fontColor=#ffffff;strokeColor=#2D7600;" parent="WIyWlLk6GJQsqaUBKTNV-1" vertex="1">
          <mxGeometry x="1110" y="112" width="120" height="30" as="geometry" />
        </mxCell>
        <mxCell id="PzBcTISUMEJhEaxG71Po-123" value="&lt;span style=&quot;color: rgb(255, 255, 255);&quot;&gt;PATCH&amp;nbsp; API Request&lt;/span&gt;" style="rounded=1;whiteSpace=wrap;html=1;fillColor=#f0a30a;flipV=1;fontColor=#000000;strokeColor=#BD7000;" parent="WIyWlLk6GJQsqaUBKTNV-1" vertex="1">
          <mxGeometry x="1110" y="153" width="120" height="30" as="geometry" />
        </mxCell>
        <mxCell id="LiJjE0nPk_Wty677orZp-5" value="" style="edgeStyle=orthogonalEdgeStyle;rounded=0;orthogonalLoop=1;jettySize=auto;html=1;" edge="1" source="LiJjE0nPk_Wty677orZp-6" target="LiJjE0nPk_Wty677orZp-8" parent="WIyWlLk6GJQsqaUBKTNV-1">
          <mxGeometry relative="1" as="geometry" />
        </mxCell>
        <mxCell id="LiJjE0nPk_Wty677orZp-6" value="Prompt user to give a specific ID" style="rounded=0;whiteSpace=wrap;html=1;" vertex="1" parent="WIyWlLk6GJQsqaUBKTNV-1">
          <mxGeometry x="330" y="110" width="120" height="60" as="geometry" />
        </mxCell>
        <mxCell id="LiJjE0nPk_Wty677orZp-7" value="" style="edgeStyle=orthogonalEdgeStyle;rounded=0;orthogonalLoop=1;jettySize=auto;html=1;" edge="1" source="LiJjE0nPk_Wty677orZp-8" target="LiJjE0nPk_Wty677orZp-10" parent="WIyWlLk6GJQsqaUBKTNV-1">
          <mxGeometry relative="1" as="geometry" />
        </mxCell>
        <mxCell id="LiJjE0nPk_Wty677orZp-8" value="Trigger a DELETE API to remove the specified recipe from database" style="rounded=0;whiteSpace=wrap;html=1;fillColor=#e51400;fontColor=#ffffff;strokeColor=#B20000;" vertex="1" parent="WIyWlLk6GJQsqaUBKTNV-1">
          <mxGeometry x="477" y="110" width="120" height="60" as="geometry" />
        </mxCell>
        <mxCell id="LiJjE0nPk_Wty677orZp-10" value="Provide JSON response containing removed recipe" style="rounded=0;whiteSpace=wrap;html=1;" vertex="1" parent="WIyWlLk6GJQsqaUBKTNV-1">
          <mxGeometry x="623" y="110" width="120" height="60" as="geometry" />
        </mxCell>
        <mxCell id="LiJjE0nPk_Wty677orZp-12" value="&lt;span style=&quot;color: rgb(255, 255, 255);&quot;&gt;DELETE API Request&lt;/span&gt;" style="rounded=1;whiteSpace=wrap;html=1;fillColor=#e51400;flipV=1;fontColor=#ffffff;strokeColor=#B20000;" vertex="1" parent="WIyWlLk6GJQsqaUBKTNV-1">
          <mxGeometry x="1110" y="195" width="120" height="30" as="geometry" />
        </mxCell>
        <mxCell id="LiJjE0nPk_Wty677orZp-15" value="&lt;b&gt;Delete entry&lt;/b&gt;" style="text;html=1;align=center;verticalAlign=middle;resizable=0;points=[];autosize=1;strokeColor=none;fillColor=none;fontSize=10;" vertex="1" parent="WIyWlLk6GJQsqaUBKTNV-1">
          <mxGeometry x="181" y="380" width="80" height="30" as="geometry" />
        </mxCell>
        <mxCell id="LiJjE0nPk_Wty677orZp-16" style="edgeStyle=orthogonalEdgeStyle;rounded=0;orthogonalLoop=1;jettySize=auto;html=1;entryX=0.168;entryY=0.343;entryDx=0;entryDy=0;entryPerimeter=0;" edge="1" parent="WIyWlLk6GJQsqaUBKTNV-1" source="PzBcTISUMEJhEaxG71Po-17" target="PzBcTISUMEJhEaxG71Po-49">
          <mxGeometry relative="1" as="geometry" />
        </mxCell>
        <mxCell id="LiJjE0nPk_Wty677orZp-17" style="edgeStyle=orthogonalEdgeStyle;rounded=0;orthogonalLoop=1;jettySize=auto;html=1;entryX=0.133;entryY=0.667;entryDx=0;entryDy=0;entryPerimeter=0;" edge="1" parent="WIyWlLk6GJQsqaUBKTNV-1" source="PzBcTISUMEJhEaxG71Po-20" target="PzBcTISUMEJhEaxG71Po-49">
          <mxGeometry relative="1" as="geometry" />
        </mxCell>
        <mxCell id="LiJjE0nPk_Wty677orZp-23" value="" style="edgeStyle=orthogonalEdgeStyle;rounded=0;orthogonalLoop=1;jettySize=auto;html=1;" edge="1" parent="WIyWlLk6GJQsqaUBKTNV-1" source="LiJjE0nPk_Wty677orZp-19" target="LiJjE0nPk_Wty677orZp-22">
          <mxGeometry relative="1" as="geometry" />
        </mxCell>
        <mxCell id="LiJjE0nPk_Wty677orZp-19" value="Trigger a GET API with specified columns only" style="whiteSpace=wrap;html=1;fillColor=#60a917;fontColor=#ffffff;strokeColor=#2D7600;" vertex="1" parent="WIyWlLk6GJQsqaUBKTNV-1">
          <mxGeometry x="910" y="480" width="120" height="60" as="geometry" />
        </mxCell>
        <mxCell id="LiJjE0nPk_Wty677orZp-25" value="" style="edgeStyle=orthogonalEdgeStyle;rounded=0;orthogonalLoop=1;jettySize=auto;html=1;" edge="1" parent="WIyWlLk6GJQsqaUBKTNV-1" source="LiJjE0nPk_Wty677orZp-22" target="LiJjE0nPk_Wty677orZp-24">
          <mxGeometry relative="1" as="geometry">
            <Array as="points">
              <mxPoint x="600" y="520" />
              <mxPoint x="600" y="520" />
            </Array>
          </mxGeometry>
        </mxCell>
        <mxCell id="LiJjE0nPk_Wty677orZp-27" style="edgeStyle=orthogonalEdgeStyle;rounded=0;orthogonalLoop=1;jettySize=auto;html=1;entryX=1;entryY=0.5;entryDx=0;entryDy=0;" edge="1" parent="WIyWlLk6GJQsqaUBKTNV-1" source="LiJjE0nPk_Wty677orZp-22" target="LiJjE0nPk_Wty677orZp-26">
          <mxGeometry relative="1" as="geometry">
            <Array as="points">
              <mxPoint x="830" y="580" />
            </Array>
          </mxGeometry>
        </mxCell>
        <mxCell id="LiJjE0nPk_Wty677orZp-22" value="&lt;span style=&quot;font-size: 11px;&quot;&gt;Are all&lt;/span&gt;&lt;br style=&quot;font-size: 11px;&quot;&gt;&lt;span style=&quot;font-size: 11px;&quot;&gt;columns held&lt;/span&gt;&lt;br style=&quot;font-size: 11px;&quot;&gt;&lt;span style=&quot;font-size: 11px;&quot;&gt;in &#39;recipes&#39; table?&lt;/span&gt;" style="rhombus;whiteSpace=wrap;html=1;" vertex="1" parent="WIyWlLk6GJQsqaUBKTNV-1">
          <mxGeometry x="790" y="470" width="80" height="80" as="geometry" />
        </mxCell>
        <mxCell id="LiJjE0nPk_Wty677orZp-29" style="edgeStyle=orthogonalEdgeStyle;rounded=0;orthogonalLoop=1;jettySize=auto;html=1;entryX=0.5;entryY=0;entryDx=0;entryDy=0;" edge="1" parent="WIyWlLk6GJQsqaUBKTNV-1" source="LiJjE0nPk_Wty677orZp-24" target="PzBcTISUMEJhEaxG71Po-21">
          <mxGeometry relative="1" as="geometry">
            <Array as="points">
              <mxPoint x="460" y="510" />
              <mxPoint x="460" y="622" />
              <mxPoint x="970" y="622" />
            </Array>
          </mxGeometry>
        </mxCell>
        <mxCell id="LiJjE0nPk_Wty677orZp-24" value="Have API respond with JSON payload containing recipes with specific columns" style="rounded=0;whiteSpace=wrap;html=1;" vertex="1" parent="WIyWlLk6GJQsqaUBKTNV-1">
          <mxGeometry x="480" y="480" width="120" height="60" as="geometry" />
        </mxCell>
        <mxCell id="LiJjE0nPk_Wty677orZp-28" style="edgeStyle=orthogonalEdgeStyle;rounded=0;orthogonalLoop=1;jettySize=auto;html=1;entryX=0.5;entryY=1;entryDx=0;entryDy=0;" edge="1" parent="WIyWlLk6GJQsqaUBKTNV-1" source="LiJjE0nPk_Wty677orZp-26" target="LiJjE0nPk_Wty677orZp-24">
          <mxGeometry relative="1" as="geometry" />
        </mxCell>
        <mxCell id="LiJjE0nPk_Wty677orZp-26" value="Augment GET API request to JOIN recipes and cuisine tables" style="rounded=0;whiteSpace=wrap;html=1;" vertex="1" parent="WIyWlLk6GJQsqaUBKTNV-1">
          <mxGeometry x="630" y="550" width="120" height="60" as="geometry" />
        </mxCell>
        <mxCell id="LiJjE0nPk_Wty677orZp-35" value="&lt;font style=&quot;font-size: 10px;&quot;&gt;&lt;b&gt;No&lt;/b&gt;&lt;/font&gt;" style="text;html=1;align=center;verticalAlign=middle;resizable=0;points=[];autosize=1;strokeColor=none;fillColor=none;" vertex="1" parent="WIyWlLk6GJQsqaUBKTNV-1">
          <mxGeometry x="823" y="539" width="40" height="30" as="geometry" />
        </mxCell>
        <mxCell id="LiJjE0nPk_Wty677orZp-36" value="&lt;font style=&quot;font-size: 10px;&quot;&gt;&lt;b&gt;Yes&lt;/b&gt;&lt;/font&gt;" style="text;html=1;align=center;verticalAlign=middle;resizable=0;points=[];autosize=1;strokeColor=none;fillColor=none;" vertex="1" parent="WIyWlLk6GJQsqaUBKTNV-1">
          <mxGeometry x="761" y="487" width="40" height="30" as="geometry" />
        </mxCell>
        <mxCell id="LiJjE0nPk_Wty677orZp-37" value="&lt;font style=&quot;font-size: 10px;&quot;&gt;&lt;b&gt;No&lt;/b&gt;&lt;/font&gt;" style="text;html=1;align=center;verticalAlign=middle;resizable=0;points=[];autosize=1;strokeColor=none;fillColor=none;" vertex="1" parent="WIyWlLk6GJQsqaUBKTNV-1">
          <mxGeometry x="890" y="668" width="40" height="30" as="geometry" />
        </mxCell>
        <mxCell id="LiJjE0nPk_Wty677orZp-39" value="&lt;font style=&quot;font-size: 10px;&quot;&gt;&lt;b&gt;Yes&lt;/b&gt;&lt;/font&gt;" style="text;html=1;align=center;verticalAlign=middle;resizable=0;points=[];autosize=1;strokeColor=none;fillColor=none;" vertex="1" parent="WIyWlLk6GJQsqaUBKTNV-1">
          <mxGeometry x="910" y="703" width="40" height="30" as="geometry" />
        </mxCell>
        <mxCell id="LiJjE0nPk_Wty677orZp-40" value="&lt;b&gt;Add to Favourite&lt;/b&gt;" style="text;html=1;align=center;verticalAlign=middle;resizable=0;points=[];autosize=1;strokeColor=none;fillColor=none;fontSize=10;" vertex="1" parent="WIyWlLk6GJQsqaUBKTNV-1">
          <mxGeometry x="159" y="358" width="100" height="30" as="geometry" />
        </mxCell>
        <mxCell id="LiJjE0nPk_Wty677orZp-45" value="" style="edgeStyle=orthogonalEdgeStyle;rounded=0;orthogonalLoop=1;jettySize=auto;html=1;" edge="1" parent="WIyWlLk6GJQsqaUBKTNV-1" source="LiJjE0nPk_Wty677orZp-42" target="LiJjE0nPk_Wty677orZp-44">
          <mxGeometry relative="1" as="geometry" />
        </mxCell>
        <mxCell id="LiJjE0nPk_Wty677orZp-42" value="User selects Favourite button" style="rounded=0;whiteSpace=wrap;html=1;" vertex="1" parent="WIyWlLk6GJQsqaUBKTNV-1">
          <mxGeometry x="330" y="37" width="120" height="60" as="geometry" />
        </mxCell>
        <mxCell id="LiJjE0nPk_Wty677orZp-44" value="Trigger a PATH API request to update the &#39;favourites&#39; value to true in the table" style="rounded=0;whiteSpace=wrap;html=1;fillColor=light-dark(#f0a30a, #ededed);" vertex="1" parent="WIyWlLk6GJQsqaUBKTNV-1">
          <mxGeometry x="477" y="37" width="120" height="60" as="geometry" />
        </mxCell>
        <mxCell id="LiJjE0nPk_Wty677orZp-47" style="edgeStyle=orthogonalEdgeStyle;rounded=0;orthogonalLoop=1;jettySize=auto;html=1;entryX=0.669;entryY=0.181;entryDx=0;entryDy=0;entryPerimeter=0;" edge="1" parent="WIyWlLk6GJQsqaUBKTNV-1" source="PzBcTISUMEJhEaxG71Po-49" target="PzBcTISUMEJhEaxG71Po-21">
          <mxGeometry relative="1" as="geometry">
            <Array as="points">
              <mxPoint x="1040" y="300" />
              <mxPoint x="1040" y="658" />
            </Array>
          </mxGeometry>
        </mxCell>
        <mxCell id="LiJjE0nPk_Wty677orZp-48" style="edgeStyle=orthogonalEdgeStyle;rounded=0;orthogonalLoop=1;jettySize=auto;html=1;entryX=0.878;entryY=0.64;entryDx=0;entryDy=0;entryPerimeter=0;" edge="1" parent="WIyWlLk6GJQsqaUBKTNV-1" source="LiJjE0nPk_Wty677orZp-10" target="PzBcTISUMEJhEaxG71Po-21">
          <mxGeometry relative="1" as="geometry">
            <Array as="points">
              <mxPoint x="1080" y="140" />
              <mxPoint x="1080" y="704" />
            </Array>
          </mxGeometry>
        </mxCell>
        <mxCell id="LiJjE0nPk_Wty677orZp-49" style="edgeStyle=orthogonalEdgeStyle;rounded=0;orthogonalLoop=1;jettySize=auto;html=1;entryX=0.651;entryY=0.847;entryDx=0;entryDy=0;entryPerimeter=0;" edge="1" parent="WIyWlLk6GJQsqaUBKTNV-1" source="LiJjE0nPk_Wty677orZp-44" target="PzBcTISUMEJhEaxG71Po-21">
          <mxGeometry relative="1" as="geometry">
            <Array as="points">
              <mxPoint x="1100" y="67" />
              <mxPoint x="1100" y="725" />
            </Array>
          </mxGeometry>
        </mxCell>
      </root>
    </mxGraphModel>
  </diagram>
</mxfile>
